<svg width="143" height="35" viewBox="0 0 143 35" fill="none" xmlns="http://www.w3.org/2000/svg">
<mask id="path-1-outside-1_19086_118251" maskUnits="userSpaceOnUse" x="-0.0703125" y="-0.0703125" width="143" height="35" fill="black">
<rect fill="white" x="-0.0703125" y="-0.0703125" width="143" height="35"/>
<path d="M3.92969 20.3656C3.92969 18.7069 4.181 17.2744 4.68363 16.0681C5.18625 14.8367 5.87737 13.8189 6.75696 13.0147C7.66169 12.2105 8.70464 11.6199 9.88581 11.2429C11.0921 10.8408 12.3864 10.6398 13.7686 10.6398C14.2712 10.6398 14.7613 10.69 15.2388 10.7905C15.7163 10.8659 16.1058 10.9665 16.4074 11.0921V4.9852C16.6587 4.90981 17.0608 4.83441 17.6137 4.75902C18.1666 4.6585 18.732 4.60823 19.3101 4.60823C19.863 4.60823 20.353 4.64593 20.7802 4.72132C21.2326 4.79672 21.6096 4.94751 21.9112 5.17369C22.2127 5.39987 22.4389 5.71401 22.5897 6.11611C22.7405 6.49308 22.8159 6.99571 22.8159 7.62399V25.4924C22.8159 26.6735 22.263 27.616 21.1572 28.3196C20.4284 28.7971 19.486 29.2118 18.3299 29.5636C17.1739 29.9406 15.8419 30.1291 14.3341 30.1291C12.7005 30.1291 11.2303 29.9029 9.92351 29.4506C8.64181 28.9982 7.5486 28.3448 6.64387 27.4903C5.76427 26.6358 5.08573 25.618 4.60823 24.4369C4.15587 23.2305 3.92969 21.8735 3.92969 20.3656ZM14.6356 15.6535C13.2785 15.6535 12.2356 16.043 11.5068 16.8221C10.778 17.6011 10.4136 18.7823 10.4136 20.3656C10.4136 21.9237 10.7528 23.1049 11.4314 23.9091C12.1099 24.6882 13.0901 25.0777 14.3718 25.0777C14.8241 25.0777 15.2262 25.0149 15.5781 24.8892C15.955 24.7384 16.244 24.5751 16.4451 24.3992V16.1058C15.9425 15.8042 15.3393 15.6535 14.6356 15.6535Z"/>
<path d="M34.6504 25.4547C35.0776 25.4547 35.5425 25.417 36.0452 25.3416C36.5729 25.2411 36.9625 25.1154 37.2138 24.9646V21.9488L34.4996 22.175C33.7959 22.2253 33.2179 22.3761 32.7655 22.6274C32.3132 22.8787 32.087 23.2557 32.087 23.7583C32.087 24.2609 32.2755 24.6756 32.6524 25.0023C33.0545 25.3039 33.7205 25.4547 34.6504 25.4547ZM34.3488 10.6398C35.7059 10.6398 36.9373 10.778 38.0431 11.0544C39.174 11.3309 40.129 11.7581 40.9081 12.3361C41.7123 12.889 42.328 13.6052 42.7552 14.4848C43.1825 15.3393 43.3961 16.3571 43.3961 17.5383V25.9824C43.3961 26.6358 43.2076 27.1762 42.8306 27.6034C42.4788 28.0055 42.0516 28.3573 41.5489 28.6589C39.9154 29.639 37.6159 30.1291 34.6504 30.1291C33.3184 30.1291 32.1121 30.0034 31.0315 29.7521C29.976 29.5008 29.0587 29.1238 28.2796 28.6212C27.5257 28.1186 26.9351 27.4777 26.5078 26.6987C26.1057 25.9196 25.9047 25.0149 25.9047 23.9845C25.9047 22.2504 26.4199 20.9185 27.4503 19.9886C28.4806 19.0587 30.0765 18.4807 32.2378 18.2545L37.1761 17.7268V17.4629C37.1761 16.7341 36.8494 16.2189 36.196 15.9173C35.5677 15.5906 34.6504 15.4273 33.4441 15.4273C32.4891 15.4273 31.5592 15.5278 30.6545 15.7288C29.7498 15.9299 28.933 16.1812 28.2042 16.4828C27.8775 16.2566 27.601 15.9173 27.3749 15.465C27.1487 14.9875 27.0356 14.4974 27.0356 13.9948C27.0356 13.3414 27.1864 12.8262 27.488 12.4492C27.8147 12.0471 28.3047 11.7078 28.9581 11.4314C29.6869 11.1549 30.5414 10.9539 31.5215 10.8282C32.5268 10.7026 33.4692 10.6398 34.3488 10.6398Z"/>
<path d="M47.3899 11.2052C47.3899 9.92351 47.6035 8.8303 48.0308 7.92557C48.4831 6.99571 49.0863 6.24177 49.8402 5.66375C50.5941 5.0606 51.4737 4.6208 52.479 4.34435C53.5094 4.06791 54.6026 3.92969 55.7586 3.92969C57.6184 3.92969 58.988 4.181 59.8676 4.68363C60.7472 5.16112 61.187 5.99046 61.187 7.17163C61.187 7.67425 61.0739 8.12662 60.8477 8.52872C60.6467 8.93082 60.4205 9.2324 60.1692 9.43345C59.6917 9.30779 59.1891 9.20727 58.6613 9.13187C58.1587 9.03135 57.5681 8.98108 56.8895 8.98108C55.8089 8.98108 54.967 9.16957 54.3638 9.54654C53.7607 9.89838 53.4591 10.5267 53.4591 11.4314V12.6377H59.6414C59.7922 12.9141 59.9304 13.266 60.0561 13.6932C60.2069 14.0953 60.2823 14.5477 60.2823 15.0503C60.2823 15.9299 60.0812 16.5707 59.6791 16.9728C59.3022 17.3498 58.787 17.5383 58.1335 17.5383H53.7984V29.4882C53.5471 29.5636 53.145 29.639 52.5921 29.7144C52.0643 29.7898 51.5114 29.8275 50.9334 29.8275C50.3805 29.8275 49.8779 29.7898 49.4255 29.7144C48.9983 29.639 48.6339 29.4882 48.3323 29.2621C48.0308 29.0359 47.792 28.7343 47.6161 28.3573C47.4653 27.9552 47.3899 27.44 47.3899 26.8118V11.2052Z"/>
<path d="M71.3534 25.4547C71.7806 25.4547 72.2456 25.417 72.7482 25.3416C73.276 25.2411 73.6655 25.1154 73.9168 24.9646V21.9488L71.2026 22.175C70.4989 22.2253 69.9209 22.3761 69.4686 22.6274C69.0162 22.8787 68.79 23.2557 68.79 23.7583C68.79 24.2609 68.9785 24.6756 69.3555 25.0023C69.7576 25.3039 70.4236 25.4547 71.3534 25.4547ZM71.0518 10.6398C72.4089 10.6398 73.6404 10.778 74.7461 11.0544C75.8771 11.3309 76.832 11.7581 77.6111 12.3361C78.4153 12.889 79.031 13.6052 79.4583 14.4848C79.8855 15.3393 80.0991 16.3571 80.0991 17.5383V25.9824C80.0991 26.6358 79.9106 27.1762 79.5337 27.6034C79.1818 28.0055 78.7546 28.3573 78.252 28.6589C76.6184 29.639 74.3189 30.1291 71.3534 30.1291C70.0215 30.1291 68.8151 30.0034 67.7345 29.7521C66.679 29.5008 65.7617 29.1238 64.9826 28.6212C64.2287 28.1186 63.6381 27.4777 63.2109 26.6987C62.8088 25.9196 62.6077 25.0149 62.6077 23.9845C62.6077 22.2504 63.1229 20.9185 64.1533 19.9886C65.1837 19.0587 66.7795 18.4807 68.9408 18.2545L73.8791 17.7268V17.4629C73.8791 16.7341 73.5524 16.2189 72.899 15.9173C72.2707 15.5906 71.3534 15.4273 70.1471 15.4273C69.1921 15.4273 68.2623 15.5278 67.3575 15.7288C66.4528 15.9299 65.636 16.1812 64.9072 16.4828C64.5805 16.2566 64.3041 15.9173 64.0779 15.465C63.8517 14.9875 63.7386 14.4974 63.7386 13.9948C63.7386 13.3414 63.8894 12.8262 64.191 12.4492C64.5177 12.0471 65.0078 11.7078 65.6612 11.4314C66.39 11.1549 67.2444 10.9539 68.2246 10.8282C69.2298 10.7026 70.1722 10.6398 71.0518 10.6398Z"/>
<path d="M84.0929 4.9852C84.3442 4.90981 84.7463 4.83441 85.2992 4.75902C85.8521 4.6585 86.4176 4.60823 86.9956 4.60823C87.5485 4.60823 88.0386 4.64593 88.4658 4.72132C88.9181 4.79672 89.2951 4.94751 89.5967 5.17369C89.8983 5.39987 90.1245 5.71401 90.2752 6.11611C90.426 6.49308 90.5014 6.99571 90.5014 7.62399V11.3183C91.1297 11.067 91.7203 10.8911 92.2732 10.7905C92.8512 10.69 93.4795 10.6398 94.158 10.6398C95.3643 10.6398 96.5078 10.8534 97.5885 11.2806C98.6691 11.7078 99.6241 12.3361 100.453 13.1655C101.283 13.9697 101.936 14.9749 102.414 16.1812C102.891 17.3875 103.13 18.7823 103.13 20.3656C103.13 21.9991 102.879 23.4316 102.376 24.663C101.898 25.8693 101.22 26.8746 100.34 27.6788C99.4607 28.483 98.3801 29.0987 97.0984 29.5259C95.8418 29.928 94.447 30.1291 92.914 30.1291C91.2554 30.1291 89.848 29.928 88.692 29.5259C87.5359 29.149 86.5558 28.6715 85.7516 28.0935C84.6458 27.3144 84.0929 26.3091 84.0929 25.0777V4.9852ZM92.914 25.0777C94.0701 25.0777 94.9622 24.6882 95.5905 23.9091C96.2439 23.1049 96.5706 21.9237 96.5706 20.3656C96.5706 18.7823 96.2439 17.6011 95.5905 16.8221C94.9371 16.043 94.0575 15.6535 92.9517 15.6535C92.4491 15.6535 92.0093 15.7037 91.6323 15.8042C91.2805 15.9048 90.891 16.0556 90.4637 16.2566V24.4745C90.7402 24.6505 91.0669 24.8013 91.4438 24.9269C91.8459 25.0274 92.336 25.0777 92.914 25.0777Z"/>
<path d="M115.941 30.1291C114.458 30.1291 113.076 29.928 111.794 29.5259C110.538 29.0987 109.432 28.4704 108.477 27.6411C107.547 26.8118 106.806 25.7688 106.253 24.5122C105.725 23.2557 105.461 21.7855 105.461 20.1017C105.461 18.443 105.725 17.0231 106.253 15.8419C106.806 14.6356 107.522 13.6555 108.402 12.9016C109.281 12.1225 110.286 11.557 111.417 11.2052C112.548 10.8282 113.704 10.6398 114.885 10.6398C116.217 10.6398 117.424 10.8408 118.504 11.2429C119.61 11.645 120.553 12.1979 121.332 12.9016C122.136 13.6052 122.752 14.4471 123.179 15.4273C123.631 16.4074 123.857 17.4755 123.857 18.6315C123.857 19.486 123.619 20.1394 123.141 20.5918C122.664 21.0441 121.998 21.3331 121.143 21.4588L111.832 22.8536C112.108 23.6829 112.674 24.3112 113.528 24.7384C114.383 25.1405 115.363 25.3416 116.469 25.3416C117.499 25.3416 118.467 25.2159 119.371 24.9646C120.301 24.6882 121.055 24.374 121.633 24.0222C122.035 24.2735 122.375 24.6253 122.651 25.0777C122.928 25.5301 123.066 26.0076 123.066 26.5102C123.066 27.6411 122.538 28.483 121.482 29.0359C120.678 29.4631 119.774 29.7521 118.768 29.9029C117.763 30.0537 116.821 30.1291 115.941 30.1291ZM114.885 15.3142C114.282 15.3142 113.755 15.4147 113.302 15.6158C112.875 15.8168 112.523 16.0807 112.247 16.4074C111.97 16.709 111.757 17.0608 111.606 17.4629C111.48 17.8399 111.405 18.2294 111.38 18.6315L117.826 17.576C117.75 17.0734 117.474 16.5707 116.997 16.0681C116.519 15.5655 115.815 15.3142 114.885 15.3142Z"/>
<path d="M133.351 23.2305C133.351 23.884 133.552 24.3489 133.954 24.6253C134.381 24.9018 134.971 25.04 135.725 25.04C136.102 25.04 136.492 25.0149 136.894 24.9646C137.296 24.8892 137.648 24.8013 137.95 24.7007C138.176 24.9772 138.364 25.2913 138.515 25.6432C138.691 25.9699 138.779 26.372 138.779 26.8495C138.779 27.8044 138.415 28.5835 137.686 29.1867C136.982 29.7898 135.725 30.0914 133.916 30.0914C131.704 30.0914 129.995 29.5888 128.789 28.5835C127.608 27.5783 127.017 25.9447 127.017 23.6829V7.5486C127.294 7.4732 127.683 7.39781 128.186 7.32242C128.714 7.22189 129.267 7.17163 129.845 7.17163C130.95 7.17163 131.805 7.37268 132.408 7.77478C133.036 8.15175 133.351 8.96852 133.351 10.2251V12.6377H138.289C138.44 12.9141 138.578 13.266 138.704 13.6932C138.854 14.0953 138.93 14.5477 138.93 15.0503C138.93 15.9299 138.729 16.5707 138.327 16.9728C137.95 17.3498 137.434 17.5383 136.781 17.5383H133.351V23.2305Z"/>
</mask>
<path d="M3.92969 20.3656C3.92969 18.7069 4.181 17.2744 4.68363 16.0681C5.18625 14.8367 5.87737 13.8189 6.75696 13.0147C7.66169 12.2105 8.70464 11.6199 9.88581 11.2429C11.0921 10.8408 12.3864 10.6398 13.7686 10.6398C14.2712 10.6398 14.7613 10.69 15.2388 10.7905C15.7163 10.8659 16.1058 10.9665 16.4074 11.0921V4.9852C16.6587 4.90981 17.0608 4.83441 17.6137 4.75902C18.1666 4.6585 18.732 4.60823 19.3101 4.60823C19.863 4.60823 20.353 4.64593 20.7802 4.72132C21.2326 4.79672 21.6096 4.94751 21.9112 5.17369C22.2127 5.39987 22.4389 5.71401 22.5897 6.11611C22.7405 6.49308 22.8159 6.99571 22.8159 7.62399V25.4924C22.8159 26.6735 22.263 27.616 21.1572 28.3196C20.4284 28.7971 19.486 29.2118 18.3299 29.5636C17.1739 29.9406 15.8419 30.1291 14.3341 30.1291C12.7005 30.1291 11.2303 29.9029 9.92351 29.4506C8.64181 28.9982 7.5486 28.3448 6.64387 27.4903C5.76427 26.6358 5.08573 25.618 4.60823 24.4369C4.15587 23.2305 3.92969 21.8735 3.92969 20.3656ZM14.6356 15.6535C13.2785 15.6535 12.2356 16.043 11.5068 16.8221C10.778 17.6011 10.4136 18.7823 10.4136 20.3656C10.4136 21.9237 10.7528 23.1049 11.4314 23.9091C12.1099 24.6882 13.0901 25.0777 14.3718 25.0777C14.8241 25.0777 15.2262 25.0149 15.5781 24.8892C15.955 24.7384 16.244 24.5751 16.4451 24.3992V16.1058C15.9425 15.8042 15.3393 15.6535 14.6356 15.6535Z" fill="#FF3838"/>
<path d="M34.6504 25.4547C35.0776 25.4547 35.5425 25.417 36.0452 25.3416C36.5729 25.2411 36.9625 25.1154 37.2138 24.9646V21.9488L34.4996 22.175C33.7959 22.2253 33.2179 22.3761 32.7655 22.6274C32.3132 22.8787 32.087 23.2557 32.087 23.7583C32.087 24.2609 32.2755 24.6756 32.6524 25.0023C33.0545 25.3039 33.7205 25.4547 34.6504 25.4547ZM34.3488 10.6398C35.7059 10.6398 36.9373 10.778 38.0431 11.0544C39.174 11.3309 40.129 11.7581 40.9081 12.3361C41.7123 12.889 42.328 13.6052 42.7552 14.4848C43.1825 15.3393 43.3961 16.3571 43.3961 17.5383V25.9824C43.3961 26.6358 43.2076 27.1762 42.8306 27.6034C42.4788 28.0055 42.0516 28.3573 41.5489 28.6589C39.9154 29.639 37.6159 30.1291 34.6504 30.1291C33.3184 30.1291 32.1121 30.0034 31.0315 29.7521C29.976 29.5008 29.0587 29.1238 28.2796 28.6212C27.5257 28.1186 26.9351 27.4777 26.5078 26.6987C26.1057 25.9196 25.9047 25.0149 25.9047 23.9845C25.9047 22.2504 26.4199 20.9185 27.4503 19.9886C28.4806 19.0587 30.0765 18.4807 32.2378 18.2545L37.1761 17.7268V17.4629C37.1761 16.7341 36.8494 16.2189 36.196 15.9173C35.5677 15.5906 34.6504 15.4273 33.4441 15.4273C32.4891 15.4273 31.5592 15.5278 30.6545 15.7288C29.7498 15.9299 28.933 16.1812 28.2042 16.4828C27.8775 16.2566 27.601 15.9173 27.3749 15.465C27.1487 14.9875 27.0356 14.4974 27.0356 13.9948C27.0356 13.3414 27.1864 12.8262 27.488 12.4492C27.8147 12.0471 28.3047 11.7078 28.9581 11.4314C29.6869 11.1549 30.5414 10.9539 31.5215 10.8282C32.5268 10.7026 33.4692 10.6398 34.3488 10.6398Z" fill="#FF3838"/>
<path d="M47.3899 11.2052C47.3899 9.92351 47.6035 8.8303 48.0308 7.92557C48.4831 6.99571 49.0863 6.24177 49.8402 5.66375C50.5941 5.0606 51.4737 4.6208 52.479 4.34435C53.5094 4.06791 54.6026 3.92969 55.7586 3.92969C57.6184 3.92969 58.988 4.181 59.8676 4.68363C60.7472 5.16112 61.187 5.99046 61.187 7.17163C61.187 7.67425 61.0739 8.12662 60.8477 8.52872C60.6467 8.93082 60.4205 9.2324 60.1692 9.43345C59.6917 9.30779 59.1891 9.20727 58.6613 9.13187C58.1587 9.03135 57.5681 8.98108 56.8895 8.98108C55.8089 8.98108 54.967 9.16957 54.3638 9.54654C53.7607 9.89838 53.4591 10.5267 53.4591 11.4314V12.6377H59.6414C59.7922 12.9141 59.9304 13.266 60.0561 13.6932C60.2069 14.0953 60.2823 14.5477 60.2823 15.0503C60.2823 15.9299 60.0812 16.5707 59.6791 16.9728C59.3022 17.3498 58.787 17.5383 58.1335 17.5383H53.7984V29.4882C53.5471 29.5636 53.145 29.639 52.5921 29.7144C52.0643 29.7898 51.5114 29.8275 50.9334 29.8275C50.3805 29.8275 49.8779 29.7898 49.4255 29.7144C48.9983 29.639 48.6339 29.4882 48.3323 29.2621C48.0308 29.0359 47.792 28.7343 47.6161 28.3573C47.4653 27.9552 47.3899 27.44 47.3899 26.8118V11.2052Z" fill="#FF3838"/>
<path d="M71.3534 25.4547C71.7806 25.4547 72.2456 25.417 72.7482 25.3416C73.276 25.2411 73.6655 25.1154 73.9168 24.9646V21.9488L71.2026 22.175C70.4989 22.2253 69.9209 22.3761 69.4686 22.6274C69.0162 22.8787 68.79 23.2557 68.79 23.7583C68.79 24.2609 68.9785 24.6756 69.3555 25.0023C69.7576 25.3039 70.4236 25.4547 71.3534 25.4547ZM71.0518 10.6398C72.4089 10.6398 73.6404 10.778 74.7461 11.0544C75.8771 11.3309 76.832 11.7581 77.6111 12.3361C78.4153 12.889 79.031 13.6052 79.4583 14.4848C79.8855 15.3393 80.0991 16.3571 80.0991 17.5383V25.9824C80.0991 26.6358 79.9106 27.1762 79.5337 27.6034C79.1818 28.0055 78.7546 28.3573 78.252 28.6589C76.6184 29.639 74.3189 30.1291 71.3534 30.1291C70.0215 30.1291 68.8151 30.0034 67.7345 29.7521C66.679 29.5008 65.7617 29.1238 64.9826 28.6212C64.2287 28.1186 63.6381 27.4777 63.2109 26.6987C62.8088 25.9196 62.6077 25.0149 62.6077 23.9845C62.6077 22.2504 63.1229 20.9185 64.1533 19.9886C65.1837 19.0587 66.7795 18.4807 68.9408 18.2545L73.8791 17.7268V17.4629C73.8791 16.7341 73.5524 16.2189 72.899 15.9173C72.2707 15.5906 71.3534 15.4273 70.1471 15.4273C69.1921 15.4273 68.2623 15.5278 67.3575 15.7288C66.4528 15.9299 65.636 16.1812 64.9072 16.4828C64.5805 16.2566 64.3041 15.9173 64.0779 15.465C63.8517 14.9875 63.7386 14.4974 63.7386 13.9948C63.7386 13.3414 63.8894 12.8262 64.191 12.4492C64.5177 12.0471 65.0078 11.7078 65.6612 11.4314C66.39 11.1549 67.2444 10.9539 68.2246 10.8282C69.2298 10.7026 70.1722 10.6398 71.0518 10.6398Z" fill="#FF3838"/>
<path d="M84.0929 4.9852C84.3442 4.90981 84.7463 4.83441 85.2992 4.75902C85.8521 4.6585 86.4176 4.60823 86.9956 4.60823C87.5485 4.60823 88.0386 4.64593 88.4658 4.72132C88.9181 4.79672 89.2951 4.94751 89.5967 5.17369C89.8983 5.39987 90.1245 5.71401 90.2752 6.11611C90.426 6.49308 90.5014 6.99571 90.5014 7.62399V11.3183C91.1297 11.067 91.7203 10.8911 92.2732 10.7905C92.8512 10.69 93.4795 10.6398 94.158 10.6398C95.3643 10.6398 96.5078 10.8534 97.5885 11.2806C98.6691 11.7078 99.6241 12.3361 100.453 13.1655C101.283 13.9697 101.936 14.9749 102.414 16.1812C102.891 17.3875 103.13 18.7823 103.13 20.3656C103.13 21.9991 102.879 23.4316 102.376 24.663C101.898 25.8693 101.22 26.8746 100.34 27.6788C99.4607 28.483 98.3801 29.0987 97.0984 29.5259C95.8418 29.928 94.447 30.1291 92.914 30.1291C91.2554 30.1291 89.848 29.928 88.692 29.5259C87.5359 29.149 86.5558 28.6715 85.7516 28.0935C84.6458 27.3144 84.0929 26.3091 84.0929 25.0777V4.9852ZM92.914 25.0777C94.0701 25.0777 94.9622 24.6882 95.5905 23.9091C96.2439 23.1049 96.5706 21.9237 96.5706 20.3656C96.5706 18.7823 96.2439 17.6011 95.5905 16.8221C94.9371 16.043 94.0575 15.6535 92.9517 15.6535C92.4491 15.6535 92.0093 15.7037 91.6323 15.8042C91.2805 15.9048 90.891 16.0556 90.4637 16.2566V24.4745C90.7402 24.6505 91.0669 24.8013 91.4438 24.9269C91.8459 25.0274 92.336 25.0777 92.914 25.0777Z" fill="#FF3838"/>
<path d="M115.941 30.1291C114.458 30.1291 113.076 29.928 111.794 29.5259C110.538 29.0987 109.432 28.4704 108.477 27.6411C107.547 26.8118 106.806 25.7688 106.253 24.5122C105.725 23.2557 105.461 21.7855 105.461 20.1017C105.461 18.443 105.725 17.0231 106.253 15.8419C106.806 14.6356 107.522 13.6555 108.402 12.9016C109.281 12.1225 110.286 11.557 111.417 11.2052C112.548 10.8282 113.704 10.6398 114.885 10.6398C116.217 10.6398 117.424 10.8408 118.504 11.2429C119.61 11.645 120.553 12.1979 121.332 12.9016C122.136 13.6052 122.752 14.4471 123.179 15.4273C123.631 16.4074 123.857 17.4755 123.857 18.6315C123.857 19.486 123.619 20.1394 123.141 20.5918C122.664 21.0441 121.998 21.3331 121.143 21.4588L111.832 22.8536C112.108 23.6829 112.674 24.3112 113.528 24.7384C114.383 25.1405 115.363 25.3416 116.469 25.3416C117.499 25.3416 118.467 25.2159 119.371 24.9646C120.301 24.6882 121.055 24.374 121.633 24.0222C122.035 24.2735 122.375 24.6253 122.651 25.0777C122.928 25.5301 123.066 26.0076 123.066 26.5102C123.066 27.6411 122.538 28.483 121.482 29.0359C120.678 29.4631 119.774 29.7521 118.768 29.9029C117.763 30.0537 116.821 30.1291 115.941 30.1291ZM114.885 15.3142C114.282 15.3142 113.755 15.4147 113.302 15.6158C112.875 15.8168 112.523 16.0807 112.247 16.4074C111.97 16.709 111.757 17.0608 111.606 17.4629C111.48 17.8399 111.405 18.2294 111.38 18.6315L117.826 17.576C117.75 17.0734 117.474 16.5707 116.997 16.0681C116.519 15.5655 115.815 15.3142 114.885 15.3142Z" fill="#FF3838"/>
<path d="M133.351 23.2305C133.351 23.884 133.552 24.3489 133.954 24.6253C134.381 24.9018 134.971 25.04 135.725 25.04C136.102 25.04 136.492 25.0149 136.894 24.9646C137.296 24.8892 137.648 24.8013 137.95 24.7007C138.176 24.9772 138.364 25.2913 138.515 25.6432C138.691 25.9699 138.779 26.372 138.779 26.8495C138.779 27.8044 138.415 28.5835 137.686 29.1867C136.982 29.7898 135.725 30.0914 133.916 30.0914C131.704 30.0914 129.995 29.5888 128.789 28.5835C127.608 27.5783 127.017 25.9447 127.017 23.6829V7.5486C127.294 7.4732 127.683 7.39781 128.186 7.32242C128.714 7.22189 129.267 7.17163 129.845 7.17163C130.95 7.17163 131.805 7.37268 132.408 7.77478C133.036 8.15175 133.351 8.96852 133.351 10.2251V12.6377H138.289C138.44 12.9141 138.578 13.266 138.704 13.6932C138.854 14.0953 138.93 14.5477 138.93 15.0503C138.93 15.9299 138.729 16.5707 138.327 16.9728C137.95 17.3498 137.434 17.5383 136.781 17.5383H133.351V23.2305Z" fill="#FF3838"/>
<path d="M3.92969 20.3656C3.92969 18.7069 4.181 17.2744 4.68363 16.0681C5.18625 14.8367 5.87737 13.8189 6.75696 13.0147C7.66169 12.2105 8.70464 11.6199 9.88581 11.2429C11.0921 10.8408 12.3864 10.6398 13.7686 10.6398C14.2712 10.6398 14.7613 10.69 15.2388 10.7905C15.7163 10.8659 16.1058 10.9665 16.4074 11.0921V4.9852C16.6587 4.90981 17.0608 4.83441 17.6137 4.75902C18.1666 4.6585 18.732 4.60823 19.3101 4.60823C19.863 4.60823 20.353 4.64593 20.7802 4.72132C21.2326 4.79672 21.6096 4.94751 21.9112 5.17369C22.2127 5.39987 22.4389 5.71401 22.5897 6.11611C22.7405 6.49308 22.8159 6.99571 22.8159 7.62399V25.4924C22.8159 26.6735 22.263 27.616 21.1572 28.3196C20.4284 28.7971 19.486 29.2118 18.3299 29.5636C17.1739 29.9406 15.8419 30.1291 14.3341 30.1291C12.7005 30.1291 11.2303 29.9029 9.92351 29.4506C8.64181 28.9982 7.5486 28.3448 6.64387 27.4903C5.76427 26.6358 5.08573 25.618 4.60823 24.4369C4.15587 23.2305 3.92969 21.8735 3.92969 20.3656ZM14.6356 15.6535C13.2785 15.6535 12.2356 16.043 11.5068 16.8221C10.778 17.6011 10.4136 18.7823 10.4136 20.3656C10.4136 21.9237 10.7528 23.1049 11.4314 23.9091C12.1099 24.6882 13.0901 25.0777 14.3718 25.0777C14.8241 25.0777 15.2262 25.0149 15.5781 24.8892C15.955 24.7384 16.244 24.5751 16.4451 24.3992V16.1058C15.9425 15.8042 15.3393 15.6535 14.6356 15.6535Z" stroke="#FFEA54" stroke-width="7.85354" mask="url(#path-1-outside-1_19086_118251)"/>
<path d="M34.6504 25.4547C35.0776 25.4547 35.5425 25.417 36.0452 25.3416C36.5729 25.2411 36.9625 25.1154 37.2138 24.9646V21.9488L34.4996 22.175C33.7959 22.2253 33.2179 22.3761 32.7655 22.6274C32.3132 22.8787 32.087 23.2557 32.087 23.7583C32.087 24.2609 32.2755 24.6756 32.6524 25.0023C33.0545 25.3039 33.7205 25.4547 34.6504 25.4547ZM34.3488 10.6398C35.7059 10.6398 36.9373 10.778 38.0431 11.0544C39.174 11.3309 40.129 11.7581 40.9081 12.3361C41.7123 12.889 42.328 13.6052 42.7552 14.4848C43.1825 15.3393 43.3961 16.3571 43.3961 17.5383V25.9824C43.3961 26.6358 43.2076 27.1762 42.8306 27.6034C42.4788 28.0055 42.0516 28.3573 41.5489 28.6589C39.9154 29.639 37.6159 30.1291 34.6504 30.1291C33.3184 30.1291 32.1121 30.0034 31.0315 29.7521C29.976 29.5008 29.0587 29.1238 28.2796 28.6212C27.5257 28.1186 26.9351 27.4777 26.5078 26.6987C26.1057 25.9196 25.9047 25.0149 25.9047 23.9845C25.9047 22.2504 26.4199 20.9185 27.4503 19.9886C28.4806 19.0587 30.0765 18.4807 32.2378 18.2545L37.1761 17.7268V17.4629C37.1761 16.7341 36.8494 16.2189 36.196 15.9173C35.5677 15.5906 34.6504 15.4273 33.4441 15.4273C32.4891 15.4273 31.5592 15.5278 30.6545 15.7288C29.7498 15.9299 28.933 16.1812 28.2042 16.4828C27.8775 16.2566 27.601 15.9173 27.3749 15.465C27.1487 14.9875 27.0356 14.4974 27.0356 13.9948C27.0356 13.3414 27.1864 12.8262 27.488 12.4492C27.8147 12.0471 28.3047 11.7078 28.9581 11.4314C29.6869 11.1549 30.5414 10.9539 31.5215 10.8282C32.5268 10.7026 33.4692 10.6398 34.3488 10.6398Z" stroke="#FFEA54" stroke-width="7.85354" mask="url(#path-1-outside-1_19086_118251)"/>
<path d="M47.3899 11.2052C47.3899 9.92351 47.6035 8.8303 48.0308 7.92557C48.4831 6.99571 49.0863 6.24177 49.8402 5.66375C50.5941 5.0606 51.4737 4.6208 52.479 4.34435C53.5094 4.06791 54.6026 3.92969 55.7586 3.92969C57.6184 3.92969 58.988 4.181 59.8676 4.68363C60.7472 5.16112 61.187 5.99046 61.187 7.17163C61.187 7.67425 61.0739 8.12662 60.8477 8.52872C60.6467 8.93082 60.4205 9.2324 60.1692 9.43345C59.6917 9.30779 59.1891 9.20727 58.6613 9.13187C58.1587 9.03135 57.5681 8.98108 56.8895 8.98108C55.8089 8.98108 54.967 9.16957 54.3638 9.54654C53.7607 9.89838 53.4591 10.5267 53.4591 11.4314V12.6377H59.6414C59.7922 12.9141 59.9304 13.266 60.0561 13.6932C60.2069 14.0953 60.2823 14.5477 60.2823 15.0503C60.2823 15.9299 60.0812 16.5707 59.6791 16.9728C59.3022 17.3498 58.787 17.5383 58.1335 17.5383H53.7984V29.4882C53.5471 29.5636 53.145 29.639 52.5921 29.7144C52.0643 29.7898 51.5114 29.8275 50.9334 29.8275C50.3805 29.8275 49.8779 29.7898 49.4255 29.7144C48.9983 29.639 48.6339 29.4882 48.3323 29.2621C48.0308 29.0359 47.792 28.7343 47.6161 28.3573C47.4653 27.9552 47.3899 27.44 47.3899 26.8118V11.2052Z" stroke="#FFEA54" stroke-width="7.85354" mask="url(#path-1-outside-1_19086_118251)"/>
<path d="M71.3534 25.4547C71.7806 25.4547 72.2456 25.417 72.7482 25.3416C73.276 25.2411 73.6655 25.1154 73.9168 24.9646V21.9488L71.2026 22.175C70.4989 22.2253 69.9209 22.3761 69.4686 22.6274C69.0162 22.8787 68.79 23.2557 68.79 23.7583C68.79 24.2609 68.9785 24.6756 69.3555 25.0023C69.7576 25.3039 70.4236 25.4547 71.3534 25.4547ZM71.0518 10.6398C72.4089 10.6398 73.6404 10.778 74.7461 11.0544C75.8771 11.3309 76.832 11.7581 77.6111 12.3361C78.4153 12.889 79.031 13.6052 79.4583 14.4848C79.8855 15.3393 80.0991 16.3571 80.0991 17.5383V25.9824C80.0991 26.6358 79.9106 27.1762 79.5337 27.6034C79.1818 28.0055 78.7546 28.3573 78.252 28.6589C76.6184 29.639 74.3189 30.1291 71.3534 30.1291C70.0215 30.1291 68.8151 30.0034 67.7345 29.7521C66.679 29.5008 65.7617 29.1238 64.9826 28.6212C64.2287 28.1186 63.6381 27.4777 63.2109 26.6987C62.8088 25.9196 62.6077 25.0149 62.6077 23.9845C62.6077 22.2504 63.1229 20.9185 64.1533 19.9886C65.1837 19.0587 66.7795 18.4807 68.9408 18.2545L73.8791 17.7268V17.4629C73.8791 16.7341 73.5524 16.2189 72.899 15.9173C72.2707 15.5906 71.3534 15.4273 70.1471 15.4273C69.1921 15.4273 68.2623 15.5278 67.3575 15.7288C66.4528 15.9299 65.636 16.1812 64.9072 16.4828C64.5805 16.2566 64.3041 15.9173 64.0779 15.465C63.8517 14.9875 63.7386 14.4974 63.7386 13.9948C63.7386 13.3414 63.8894 12.8262 64.191 12.4492C64.5177 12.0471 65.0078 11.7078 65.6612 11.4314C66.39 11.1549 67.2444 10.9539 68.2246 10.8282C69.2298 10.7026 70.1722 10.6398 71.0518 10.6398Z" stroke="#FFEA54" stroke-width="7.85354" mask="url(#path-1-outside-1_19086_118251)"/>
<path d="M84.0929 4.9852C84.3442 4.90981 84.7463 4.83441 85.2992 4.75902C85.8521 4.6585 86.4176 4.60823 86.9956 4.60823C87.5485 4.60823 88.0386 4.64593 88.4658 4.72132C88.9181 4.79672 89.2951 4.94751 89.5967 5.17369C89.8983 5.39987 90.1245 5.71401 90.2752 6.11611C90.426 6.49308 90.5014 6.99571 90.5014 7.62399V11.3183C91.1297 11.067 91.7203 10.8911 92.2732 10.7905C92.8512 10.69 93.4795 10.6398 94.158 10.6398C95.3643 10.6398 96.5078 10.8534 97.5885 11.2806C98.6691 11.7078 99.6241 12.3361 100.453 13.1655C101.283 13.9697 101.936 14.9749 102.414 16.1812C102.891 17.3875 103.13 18.7823 103.13 20.3656C103.13 21.9991 102.879 23.4316 102.376 24.663C101.898 25.8693 101.22 26.8746 100.34 27.6788C99.4607 28.483 98.3801 29.0987 97.0984 29.5259C95.8418 29.928 94.447 30.1291 92.914 30.1291C91.2554 30.1291 89.848 29.928 88.692 29.5259C87.5359 29.149 86.5558 28.6715 85.7516 28.0935C84.6458 27.3144 84.0929 26.3091 84.0929 25.0777V4.9852ZM92.914 25.0777C94.0701 25.0777 94.9622 24.6882 95.5905 23.9091C96.2439 23.1049 96.5706 21.9237 96.5706 20.3656C96.5706 18.7823 96.2439 17.6011 95.5905 16.8221C94.9371 16.043 94.0575 15.6535 92.9517 15.6535C92.4491 15.6535 92.0093 15.7037 91.6323 15.8042C91.2805 15.9048 90.891 16.0556 90.4637 16.2566V24.4745C90.7402 24.6505 91.0669 24.8013 91.4438 24.9269C91.8459 25.0274 92.336 25.0777 92.914 25.0777Z" stroke="#FFEA54" stroke-width="7.85354" mask="url(#path-1-outside-1_19086_118251)"/>
<path d="M115.941 30.1291C114.458 30.1291 113.076 29.928 111.794 29.5259C110.538 29.0987 109.432 28.4704 108.477 27.6411C107.547 26.8118 106.806 25.7688 106.253 24.5122C105.725 23.2557 105.461 21.7855 105.461 20.1017C105.461 18.443 105.725 17.0231 106.253 15.8419C106.806 14.6356 107.522 13.6555 108.402 12.9016C109.281 12.1225 110.286 11.557 111.417 11.2052C112.548 10.8282 113.704 10.6398 114.885 10.6398C116.217 10.6398 117.424 10.8408 118.504 11.2429C119.61 11.645 120.553 12.1979 121.332 12.9016C122.136 13.6052 122.752 14.4471 123.179 15.4273C123.631 16.4074 123.857 17.4755 123.857 18.6315C123.857 19.486 123.619 20.1394 123.141 20.5918C122.664 21.0441 121.998 21.3331 121.143 21.4588L111.832 22.8536C112.108 23.6829 112.674 24.3112 113.528 24.7384C114.383 25.1405 115.363 25.3416 116.469 25.3416C117.499 25.3416 118.467 25.2159 119.371 24.9646C120.301 24.6882 121.055 24.374 121.633 24.0222C122.035 24.2735 122.375 24.6253 122.651 25.0777C122.928 25.5301 123.066 26.0076 123.066 26.5102C123.066 27.6411 122.538 28.483 121.482 29.0359C120.678 29.4631 119.774 29.7521 118.768 29.9029C117.763 30.0537 116.821 30.1291 115.941 30.1291ZM114.885 15.3142C114.282 15.3142 113.755 15.4147 113.302 15.6158C112.875 15.8168 112.523 16.0807 112.247 16.4074C111.97 16.709 111.757 17.0608 111.606 17.4629C111.48 17.8399 111.405 18.2294 111.38 18.6315L117.826 17.576C117.75 17.0734 117.474 16.5707 116.997 16.0681C116.519 15.5655 115.815 15.3142 114.885 15.3142Z" stroke="#FFEA54" stroke-width="7.85354" mask="url(#path-1-outside-1_19086_118251)"/>
<path d="M133.351 23.2305C133.351 23.884 133.552 24.3489 133.954 24.6253C134.381 24.9018 134.971 25.04 135.725 25.04C136.102 25.04 136.492 25.0149 136.894 24.9646C137.296 24.8892 137.648 24.8013 137.95 24.7007C138.176 24.9772 138.364 25.2913 138.515 25.6432C138.691 25.9699 138.779 26.372 138.779 26.8495C138.779 27.8044 138.415 28.5835 137.686 29.1867C136.982 29.7898 135.725 30.0914 133.916 30.0914C131.704 30.0914 129.995 29.5888 128.789 28.5835C127.608 27.5783 127.017 25.9447 127.017 23.6829V7.5486C127.294 7.4732 127.683 7.39781 128.186 7.32242C128.714 7.22189 129.267 7.17163 129.845 7.17163C130.95 7.17163 131.805 7.37268 132.408 7.77478C133.036 8.15175 133.351 8.96852 133.351 10.2251V12.6377H138.289C138.44 12.9141 138.578 13.266 138.704 13.6932C138.854 14.0953 138.93 14.5477 138.93 15.0503C138.93 15.9299 138.729 16.5707 138.327 16.9728C137.95 17.3498 137.434 17.5383 136.781 17.5383H133.351V23.2305Z" stroke="#FFEA54" stroke-width="7.85354" mask="url(#path-1-outside-1_19086_118251)"/>
</svg>
